<?xml version="1.0" encoding="UTF-8"?>
<svg width="200px" height="200px" viewBox="0 0 205 224" version="1.1" xmlns="http://www.w3.org/2000/svg" xmlns:xlink="http://www.w3.org/1999/xlink">
    <!-- Generator: Sketch 58 (84663) - https://sketch.com -->
    <title>昇科能源单体logo</title>
    <desc>Created with Sketch.</desc>
    <defs>
        <radialGradient cx="50%" cy="43.1284086%" fx="50%" fy="43.1284086%" r="62.2033031%" gradientTransform="translate(0.500000,0.431284),scale(1.000000,0.914286),rotate(90.000000),translate(-0.500000,-0.431284)" id="radialGradient-1">
            <stop stop-color="#77FF98" offset="0%"></stop>
            <stop stop-color="#28EAD6" offset="100%"></stop>
        </radialGradient>
    </defs>
    <g id="昇科能源单体logo" stroke="none" stroke-width="1" fill="none" fill-rule="evenodd">
        <path d="M114.674308,1.33566767 L190.753421,18.7554008 C194.672963,19.6528532 197.120528,23.5476866 196.220211,27.4547546 C195.319893,31.3618226 191.412624,33.8015982 187.493082,32.9041457 L111.413969,15.4844126 C105.781471,14.1947471 99.9289461,14.1948032 94.2964734,15.4845764 L69.7101221,21.1139765 C67.002434,22.2704647 64.9891929,25.0729247 64.8288763,28.1319465 C64.6126791,32.2572362 67.4097308,35.3232278 72.3848868,35.5839647 C72.5772994,35.5940486 72.7656142,35.598619 72.9498729,35.5978512 L86.7220888,32.3947542 C90.6386443,31.4844367 94.5539541,33.9113693 95.467178,37.8154599 C96.380402,41.7195505 93.9457207,45.6223994 90.0291653,46.532717 L45.2289527,56.9455448 C45.1138302,60.7646723 45.0564786,63.7297092 45.0564785,65.8445273 C45.0504656,92.1433647 48.8114667,113.437008 56.2181118,129.718557 C61.8068938,142.004015 70.8650613,152.97951 83.4928541,162.65858 L110.998109,111.74435 C112.904877,108.214769 117.321044,106.8943 120.861894,108.795 C124.402744,110.6957 125.72743,115.097812 123.820661,118.627393 L123.820661,118.627393 L93.557064,174.647738 C93.3589528,175.014458 93.1337527,175.35733 92.88526,175.67522 C92.6822637,176.278418 92.3953991,176.865635 92.0216219,177.420015 C89.7783387,180.747216 85.2539579,181.631692 81.9161344,179.395548 C63.6815955,167.179489 50.6415498,152.61182 42.9545339,135.713951 C41.9787266,133.568897 41.0607783,131.356688 40.2004954,129.077315 L40.1887214,129.08269 C39.3536401,126.545234 36.9581649,124.712787 34.1333324,124.712787 C30.6144195,124.712787 27.761777,127.556351 27.761777,131.064065 L27.7625746,131.120079 C29.0569826,134.629785 30.4529534,138.005888 31.9501587,141.248397 C44.1106033,167.584365 67.4000969,189.436296 102.851058,207.730747 C131.479634,192.928144 152.129314,176.019315 165.744425,156.104988 C168.009246,152.792317 172.53927,151.937024 175.862517,154.194636 C179.185765,156.452249 180.043789,160.967856 177.778968,164.280526 C162.126733,187.174479 138.516914,206.134798 106.125322,222.363969 L102.85999,224 L99.5927026,222.367854 C59.5557171,202.367712 32.7738469,177.753242 18.7206809,147.318193 C7.68404359,123.416063 1.81317426,93.4672087 1.00633338,57.473754 C0.916492903,53.465939 4.10301209,50.1443647 8.12362318,50.0548101 C12.1442343,49.9652556 15.4764136,53.1416333 15.5662541,57.1494483 C15.9823103,75.7098601 17.7961086,92.4645505 20.9913446,107.413936 C22.1903452,109.591588 24.647039,111.102908 27.2328531,111.102908 C30.8630828,111.102908 33.425104,108.50725 33.425104,104.129143 C33.425104,103.842001 33.4117309,103.565931 33.3857263,103.300714 C31.4490065,91.9665608 30.4897976,79.4803321 30.4929084,65.842873 C30.4929084,62.5831312 30.6155831,57.6245134 30.8606607,50.8777877 L31.062125,45.3316934 L47.359,41.543 L47.3290432,41.4655892 C49.9939487,40.4294162 51.9446038,37.9008557 52.1043648,34.8524334 C52.3214172,30.710827 49.150623,27.1779958 45.0221977,26.9616342 C44.7273359,26.9461812 44.4355639,26.9480639 44.1478655,26.9663938 L33.7312551,29.3533342 C29.81173,30.2508616 25.9044143,27.8111609 25.0040213,23.9041101 C24.1036282,19.9970593 26.5511184,16.1021791 30.4706435,15.2046516 L91.0358618,1.33589389 C98.8140384,-0.445221583 106.896097,-0.445298931 114.674308,1.33566767 Z M197.421547,37.5946624 C201.442953,37.5542542 204.736121,40.7708046 204.777044,44.7794125 C205.20925,87.1169533 199.540355,121.18151 187.615279,147.00774 C185.933799,150.649332 181.609171,152.242657 177.955952,150.566529 C174.302733,148.890401 172.704321,144.579537 174.385801,140.937944 C176.100486,137.224438 177.677286,133.303996 179.115599,129.176754 L179.118321,129.291245 C179.100964,127.148125 177.998589,125.061951 176.022529,123.874615 C173.006232,122.062241 169.096497,123.030431 167.289891,126.037128 L167.151436,126.284235 C165.954137,129.561275 164.639314,132.771479 163.214358,135.91274 C161.28272,140.170959 158.969402,144.304943 156.277785,148.31232 C144.752593,165.471445 129.821825,179.254059 113.394727,187.638623 C109.815091,189.465707 105.427349,188.054218 103.594431,184.485974 C101.761513,180.91773 103.177509,176.543953 106.757145,174.716868 C120.883503,167.506627 133.978155,155.418935 144.176179,140.235745 C146.425033,136.887571 148.346645,133.453579 149.944396,129.931399 C155.059237,118.655932 158.587179,106.388966 160.102723,93.2428615 C161.22405,83.5162594 161.713112,76.8840125 161.587333,73.6479121 C161.431637,69.642102 164.563139,66.2689364 168.581739,66.1137358 C172.600338,65.9585352 175.984274,69.080071 176.13997,73.085881 C176.303364,77.2897517 175.774585,84.4606068 174.571056,94.9002374 C174.288782,97.3487361 173.943969,99.7701748 173.538829,102.163923 C173.852666,104.121575 175.030968,105.97675 176.787731,107.03232 C179.792145,108.837554 183.203263,107.963399 185.3804,104.340035 C185.53033,104.090509 185.661988,103.843753 185.776209,103.599986 C188.951191,86.5384645 190.439356,66.97852 190.214242,44.9271332 C190.17332,40.9185253 193.40014,37.6358381 197.421547,37.5946624 Z M126.520885,88.8734376 C130.793851,88.8734376 134.257774,92.3263363 134.257774,96.5857028 C134.257774,100.845069 130.793851,104.297968 126.520885,104.297968 C122.24792,104.297968 118.783997,100.845069 118.783997,96.5857028 C118.783997,92.3263363 122.24792,88.8734376 126.520885,88.8734376 Z M117.39816,32.5453643 C117.989906,32.5448496 118.576953,32.6140391 119.15537,32.7567842 L169.238111,44.4306099 C173.154112,45.3432958 175.586418,49.2476164 174.670818,53.151154 C173.755218,57.0546916 169.838432,59.479256 165.922431,58.5665701 L121.115,48.123 L98.3259401,89.1988632 L105.837119,89.1988632 C109.858733,89.1988632 113.118896,92.4486502 113.118896,96.4574657 C113.118896,100.386105 109.987836,103.585773 106.077482,103.712188 L105.837119,103.716068 L86.749222,103.716068 C85.4393861,103.716068 84.150992,103.384582 83.004777,102.752675 C79.3418878,100.733326 77.9670928,96.1890162 79.8564583,92.5006527 L79.9788027,92.2712751 L110.97569,36.4030635 C111.186751,36.0058475 111.432564,35.6331054 111.708272,35.2878437 C111.723745,35.2685661 111.738953,35.249647 111.754245,35.2308195 C111.784407,35.1938629 111.815349,35.1566717 111.846641,35.1198168 C111.8751,35.0857092 111.904061,35.0521057 111.93329,35.0188143 C112.584431,34.277176 113.368783,33.6904418 114.229459,33.2749309 C114.266221,33.2578587 114.30317,33.2403295 114.340271,33.2231074 L114.430237,33.1817195 L114.430237,33.1817195 L114.558895,33.1259322 L114.558895,33.1259322 C114.588771,33.1131691 114.618126,33.1009734 114.647554,33.0889706 C114.69172,33.0708345 114.736749,33.0529039 114.781968,33.0354163 L114.851081,33.0094765 L114.851081,33.0094765 C114.913345,32.9857338 114.975781,32.9632768 115.038552,32.9416621 C115.046071,32.9397586 115.054092,32.9370234 115.062116,32.9343022 C115.799198,32.6826576 116.581348,32.5477602 117.382162,32.545394 L117.39816,32.5453643 Z M8.19199977,24.4533405 C12.7163163,24.4533405 16.3839995,28.1093509 16.3839995,32.6192683 C16.3839995,37.1291857 12.7163163,40.7851961 8.19199977,40.7851961 C3.66768323,40.7851961 0,37.1291857 0,32.6192683 C0,28.1093509 3.66768323,24.4533405 8.19199977,24.4533405 Z" id="形状结合" fill="url(#radialGradient-1)" fill-rule="nonzero"></path>
    </g>
</svg>